<svg id="Laag_1" xmlns="http://www.w3.org/2000/svg" xmlns:xlink="http://www.w3.org/1999/xlink" viewBox="0 0 290 186"><style>@keyframes bounceTruck{0%{transform:translate(0,0);animation-timing-function:ease}15%{transform:translate(0,-3px);animation-timing-function:ease}35%{transform:translate(0,3px);animation-timing-function:ease}50%{transform:translate(0,-2px);animation-timing-function:ease}70%{transform:translate(0,1px);animation-timing-function:ease}80%,to{transform:translate(0,0)}}.st0{clip-path:url(#SVGID_2_)}.st1{fill:url(#SVGID_3_)}.st2{fill:url(#SVGID_4_)}.st3{fill:#28201e}.st4{fill:#393939}.st5{fill:#4b4b4b}.st6{fill:#fcde84}.st7{fill:#c39000}.st8{fill:#fbce08}.st9{fill:#1fc595}.st10{fill:#209d70}.st11{fill:#157551}.st12{fill:#2cc596}.st13{fill:#d30511}.bounce{animation-name:bounceTruck;animation-duration:2s;animation-iteration-count:infinite;transform-origin:50% 50%}</style><defs><path id="SVGID_1_" d="M0 0H290V186H0z"/></defs><clipPath id="SVGID_2_"><use xlink:href="#SVGID_1_" overflow="visible"/></clipPath><g class="st0"><g transform="translate(82.454 143.48)"><linearGradient id="SVGID_3_" gradientUnits="userSpaceOnUse" x1="-89.515" y1="23.252" x2="-59.513" y2="93.25" gradientTransform="matrix(1 0 0 -1 82.454 43.796)"><stop offset="0" stop-color="#FFFFFF" stop-opacity="0"/><stop offset=".5" stop-color="#808080" stop-opacity="0.5"/><stop offset="1" stop-color="#000000"/></linearGradient><path class="st1" d="M-6 20.2L69.5 6.6 11.2-21-66-6.6l60 26.8z"/></g><g transform="translate(156.453 130.01)"><linearGradient id="SVGID_4_" gradientUnits="userSpaceOnUse" x1="-182.263" y1="11.908" x2="-113.761" y2="131.406" gradientTransform="matrix(1 0 0 -1 156.453 57.266)"><stop offset="0" stop-color="#FFFFFF" stop-opacity="0"/><stop offset=".5" stop-color="#808080" stop-opacity="0.5"/><stop offset="1" stop-color="#000000"/></linearGradient><path class="st2" d="M-43.6 26.7L102.2.6 79.9-14.3 43.2-26.7-102.2.1l58.6 26.6z"/></g><path d="M-18.2 12.1C-19 1.7-11.4-8.3-1.1-10.2 9.1-12.1 18.2-5.3 19 5.1" transform="translate(256.412 107.727)"/><path d="M-18.2 12.1C-19 1.7-11.4-8.3-1.1-10.2 9.1-12.1 18.2-5.3 19 5.1" transform="translate(146.167 127.992)"/><path d="M126.2 116.1L164.8 108 165.2 132.4 128 139.9z"/><path d="M237.2 96.4L275.8 88.3 276.2 112.7 239 120.2z"/><g><path d="M15.7-1.6c0 8.5-7 16.1-15.7 17-8.7.9-15.7-5.3-15.7-13.8s7-16.1 15.7-17c8.7-.9 15.7 5.3 15.7 13.8z" transform="translate(140.616 132.487)"/><path d="M15.7-1.6c0 8.5-7 16.1-15.7 17-8.7.9-15.7-5.3-15.7-13.8s7-16.1 15.7-17c8.7-.9 15.7 5.3 15.7 13.8z" transform="translate(250.867 112.255)"/><path d="M3.7 6l-7.4-3.7V-6l5 .2L3.7 6z" transform="translate(135.496 143.78)"/><path d="M3.7 6l-7.4-3.7V-6l5 .2L3.7 6z" transform="translate(245.747 123.549)"/><path class="st3" d="M15.7-1.6c0 8.5-7 16.1-15.7 17-8.7.9-15.7-5.3-15.7-13.8s7-16.1 15.7-17c8.7-.9 15.7 5.3 15.7 13.8z" transform="translate(257.267 115.41)"/><path class="st4" d="M9.5-1C9.5 4.2 5.2 8.8 0 9.3S-9.5 6.1-9.5 1-5.2-8.7 0-9.3C5.2-9.8 9.5-6.1 9.5-1z" transform="translate(257.267 115.41)"/><path class="st5" d="M4.3-.4C4.3 1.9 2.4 4 0 4.3c-2.4.2-4.3-1.5-4.3-3.8C-4.3-1.9-2.4-4 0-4.3c2.4-.2 4.3 1.5 4.3 3.9z" transform="translate(257.268 115.41)"/><path class="st3" d="M15.7-1.6c0 8.5-7 16.1-15.7 17-8.7.9-15.7-5.3-15.7-13.8s7-16.1 15.7-17 15.7 5.3 15.7 13.8z" transform="translate(147.017 135.642)"/><path class="st4" d="M9.5-1C9.5 4.2 5.2 8.8 0 9.3S-9.5 6.1-9.5 1c0-5.1 4.2-9.7 9.5-10.3C5.2-9.8 9.5-6.1 9.5-1z" transform="translate(147.016 135.642)"/><path class="st5" d="M4.3-.4C4.3 1.9 2.4 4 0 4.3c-2.4.2-4.3-1.5-4.3-3.8C-4.3-1.9-2.4-4 0-4.3c2.4-.2 4.3 1.5 4.3 3.9z" transform="translate(147.017 135.642)"/></g><g class="bounce"><path class="st6" d="M4.8 11.5l34.6-3.1-34.2-17C1-10.7-4.1-11.5-8.9-11.4l-30.5.7L4.8 11.5z" transform="translate(233.452 64.294)"/><path class="st7" d="M19.2-30.4v79.8l-38.3-19.1v-79.8l38.3 19.1z" transform="translate(88.058 90.863)"/><path class="st6" d="M7.4 13.5l30.9-5L.5-10.1c-5.1-2.6-11-3.4-16.6-2.5L-38.2-9 7.4 13.5z" transform="translate(187.157 43.62)"/><path class="st8" d="M29.7-14.8l-13.8.2-22.5-16.9c-6.3-4.8-14.2-6.7-22-5.3l-15 2.6v72.3l44.7-7.9c1-8.9 8-16.7 17-18.4 9.3-1.8 17.6 3.7 19.7 12.6l5.8-.9V-4.7c0-4.8-7.6-10.2-13.9-10.1z" transform="translate(237.206 86.208)"/><path class="st7" d="M19.2-26.4v71.9l-38.3-11.1v-79.8l38.3 19z" transform="translate(176.32 78.33)"/><path class="st6" d="M-24.1 17.5L62.4 1.6 24.1-17.5-62.4-1.6l38.3 19.1z" transform="translate(131.299 42.988)"/><path class="st5" d="M-20.3 11.9L23.8 4 2.6-11.9l-26.4 4.6 3.5 19.2z" transform="translate(223.136 68.392)"/><path class="st4" d="M-2.2 10.1l24.3-4.3L1-10.1l-13 2.3L-22.1-6l19.9 16.1z" transform="translate(224.768 66.628)"/><path class="st3" d="M5.5 9l11.6-2.1L-4.1-9l-13 2.3L5.5 9z" transform="translate(229.845 65.493)"/><path class="st8" d="M-43.3-32v79.8l20.9-3.8c1.2-8.8 8-16.5 16.9-18.1 8.9-1.7 16.9 3.3 19.4 11.5L43.3 32v-79.8L-43.3-32z" transform="translate(150.48 92.42)"/><path class="st9" d="M.2 9.5C4.7 5.6 9.6 2.1 14.8-1c-3-.7-5.8-2.4-8.5-4.1-.8-.5-1.7-1-2.5-1.5-1.9-1.1-3.9-2-6-2.9-1.1.8-2.1 1.6-3 2.5-3.4 3.6-6.6 6.7-9.6 9.3C-11.1 3.4-7.6 5-4.2 6.9c1.3.7 2.5 1.5 3.8 2.3l.6.3z" transform="translate(171.705 88.465)"/><path class="st9" d="M-6.1 4.4c1.2.8 2.2 1.6 3.4 2.2 1.1.6 4.1 2.2 6.4 1C6.5 6 8.8 3.8 11.1 1.5L12.5.1c.6-.6 1.3-1.2 1.9-1.8h-.1c-1.2-.8-2.5-1.5-3.7-2.3C7-6 3.2-7.6-.9-8.8c-5 4.1-9.6 7-13.6 9 1.9.5 3.8 1.2 5.5 2.2 1.1.7 2 1.3 2.9 2z" transform="translate(155.717 101.174)"/><path class="st10" d="M-2.3 2L2.4.7c1.1-.3.9-3-.2-2.6-1.5.4-3.1.8-4.6 1.2-1.1.4-1 3 .1 2.7z" transform="translate(154.164 101.049)"/><path class="st10" d="M-2.3 2.2C-.3 1.6 1.8 1 3.9.4c1.4-.4 1.2-3-.2-2.6C1.6-1.6-.4-1-2.5-.4c-1.4.4-1.3 3 .2 2.6z" transform="translate(166.244 97.458)"/><path class="st11" d="M-1.8 2c1.6-.4 3.1-.9 4.7-1.3 1.1-.4.9-3-.2-2.7-1.6.5-3.1.9-4.7 1.3-1.1.4-.9 3 .2 2.7z" transform="translate(167.093 101.915)"/><path class="st11" d="M-3.5 2.3c2.4-.6 4.8-1.3 7.2-2 1.1-.3.9-3-.2-2.6-2.4.6-4.8 1.3-7.2 2-1.1.3-.9 3 .2 2.6z" transform="translate(156.278 103.748)"/><path class="st11" d="M-3.7 2.3c2.4-.6 4.8-1.3 7.2-2 1.1-.3.9-3-.2-2.6C1-1.7-1.5-1-3.9-.3c-1.1.3-.9 3 .2 2.6z" transform="translate(148.533 102.29)"/><path class="st10" d="M-3 2.2C-1 1.6 1.1 1 3.2.4c1.4-.4 1.3-3-.2-2.6C1-1.6-1.1-1-3.2-.4c-1.4.4-1.3 3 .2 2.6z" transform="translate(157.153 107.33)"/><path class="st11" d="M-2.3 3c1.6-.4 3.1-.9 4.7-1.3 1.1-.3.9-3-.2-2.6C.7-.5-.9-.1-2.4.4c-1.1.3-1 2.9.1 2.6z" transform="translate(159.683 108.656)"/><path class="st11" d="M-3.5 2.3c2.4-.6 4.8-1.3 7.2-2 1.1-.3.9-3-.2-2.6-2.4.6-4.8 1.3-7.2 2-1.1.3-.9 3 .2 2.6z" transform="translate(161.606 105.44)"/><path class="st10" d="M-2.3 2C-.7 1.6.8 1.1 2.4.7c1.1-.3.9-3-.2-2.6-1.5.4-3.1.8-4.6 1.2-1.1.4-1 3 .1 2.7z" transform="translate(159.718 104.59)"/><path class="st10" d="M-2.3 2C-.7 1.6.8 1.1 2.4.7c1.1-.3.9-3-.2-2.6-1.5.4-3.1.8-4.6 1.2-1.1.4-1 3 .1 2.7z" transform="translate(160.327 101.217)"/><path class="st10" d="M-2.3 2C-.7 1.6.8 1.1 2.4.7c1.1-.3.9-3-.2-2.6-1.5.4-3.1.8-4.6 1.2-1.1.4-1 3 .1 2.7z" transform="translate(150.495 106.138)"/><path class="st11" d="M-3.5 1C-1.1.3 1.3-.3 3.7-1c1.1-.3.9-3-.2-2.6-2.4.6-4.8 1.3-7.2 2-1.1.3-.9 2.9.2 2.6z" transform="translate(156.5 93.746)"/><path class="st10" d="M-2.3 2C-.7 1.6.8 1.1 2.4.7c1.1-.3.9-3-.2-2.6-1.5.4-3.1.8-4.6 1.2-1.1.4-1 3 .1 2.7z" transform="translate(147.766 100.07)"/><path class="st10" d="M-3 2.1C-.9 1.5 1.1.9 3.2.3c1.4-.4 1.3-3-.2-2.6-2 .6-4.1 1.2-6.2 1.7-1.4.5-1.3 3.1.2 2.7z" transform="translate(155.789 94.912)"/><path class="st11" d="M-2.3 2C-.7 1.6.8 1.1 2.4.7c1.1-.3.9-3-.2-2.6-1.5.4-3.1.8-4.6 1.2-1.1.4-1 3 .1 2.7z" transform="translate(158.318 97.144)"/><path class="st9" d="M12.2 2.7c1.2-.2 2.4-.5 3.6-.7-.9-.2-1.8-.5-2.7-1-1.3-.7-2.5-1.5-3.7-2.3-.9-.7-1.8-1.3-2.7-1.8-2.4-1.4-5-2.2-7.7-2.7-9.3 4-14.7 3-14.7 3C-12.4 1-8.5 3.7-4.2 5.7l16.4-3z" transform="translate(138.998 108.718)"/><path class="st9" d="M15.5 3.7c.9-2.2 1.6-4.1 1.7-6 .1-2.3-.6-4.7-1.5-6.9-.6.6-1.3 1.1-1.9 1.7l-1.4 1.3C9.5-3.3 6.5-.4 2.7 1.3.4 2.3-2 2.7-4.4 3.2l-12.9 2.4c10.7 3.7 22.7 3.3 31 2.3l1.8-4.2z" transform="translate(155.976 110.454)"/><path class="st9" d="M.8 11.6v-23.8c-.5.3-1 .5-1.6.7C.1-3.6.4 4.3.1 12.2c.2-.2.4-.4.7-.6z" transform="translate(192.96 98.417)"/><path class="st9" d="M11-3.9C7.7-5.6 3.7-6.3-.8-5.7-4.4-5.2-7.9-4-11-2.1c1.7.7 3.3 1.5 4.9 2.4.8.6 1.7 1.1 2.6 1.7C-.1 4.1 3.1 6.3 6.8 6.3c1.4-.8 2.8-1.5 4.2-2.1v-8.1z" transform="translate(182.69 79.584)"/><path class="st9" d="M9 9.3c.5-8.1.3-16.2-.6-24.3-6 3.3-11.6 7.2-16.7 11.6 1.1 2.6 2.1 5.6 2 8.7-.1 2.5-1.1 4.8-1.9 6.7-.4 1-.8 2-1.3 3 4.7-.7 7.7-1.5 7.7-1.5 3.9-.6 7.6-2.1 10.8-4.2z" transform="translate(181.674 103.057)"/><path class="st10" d="M-2.3 2C-.7 1.6.8 1.1 2.4.7c1.1-.3.9-3-.2-2.6-1.5.4-3.1.8-4.6 1.2-1.1.4-1 3 .1 2.7z" transform="translate(179.521 114.104)"/><path class="st10" d="M-.8 2C.8 1.6 2.3 1.1 3.9.7c1.1-.4.9-3-.2-2.7-1.5.5-3.1.9-4.6 1.3-1.1.4-1 3 .1 2.7z" transform="translate(189.103 99.146)"/><path class="st10" d="M-2.3 2C-.7 1.6.8 1.1 2.4.7c1.1-.3.9-3-.2-2.6-1.5.4-3.1.8-4.6 1.2-1.1.4-1 3 .1 2.7z" transform="translate(176.821 110.638)"/><path class="st11" d="M-3.5 2.3c2.4-.6 4.8-1.3 7.2-2 1.1-.3.9-3-.2-2.6-2.4.6-4.8 1.3-7.2 2-1.1.3-.9 3 .2 2.6z" transform="translate(183.078 100.423)"/><path class="st11" d="M-.2 2.3C2.2 1.7 4.6 1 7 .3c1.1-.3.9-3-.2-2.6C4.4-1.7 2-1-.4-.3c-1.1.3-.9 3 .2 2.6z" transform="translate(189.66 96.805)"/><path class="st10" d="M-3 2.2L3.2.4c1.4-.4 1.3-3-.2-2.6C1-1.6-1.1-1-3.2-.4c-1.4.4-1.3 3 .2 2.6z" transform="translate(179.518 103.51)"/><path class="st10" d="M-3.2 2.2C-1.2 1.6.9 1 2.9.4c1.5-.4 1.3-3-.1-2.6C.7-1.6-1.3-1-3.4-.4c-1.4.4-1.3 3 .2 2.6z" transform="translate(176.567 100.785)"/><path class="st10" d="M-1.5 2.2L4.7.4c1.4-.4 1.2-3-.2-2.6L-1.7-.4c-1.4.4-1.3 3 .2 2.6z" transform="translate(188.007 107.855)"/><path class="st11" d="M-2.3 2C-.7 1.6.8 1.1 2.4.7c1.1-.3.9-3-.2-2.6-1.5.4-3.1.8-4.6 1.2-1.1.4-1 3 .1 2.7z" transform="translate(184.81 103.92)"/><path class="st11" d="M-2.9 2.1C-1.3 1.7.2 1.2 1.8.8c1.1-.3.9-3-.2-2.6C0-1.4-1.5-1-3.1-.5c-1.1.3-.9 2.9.2 2.6z" transform="translate(175.045 115.553)"/><path class="st11" d="M-2.3 2C-.7 1.6.8 1.1 2.4.7c1.1-.3.9-3-.2-2.6-1.5.4-3.1.8-4.6 1.2-1.1.4-1 3 .1 2.7z" transform="translate(182.702 115.115)"/><path class="st11" d="M-.4 1.8C1.2 1.4 2.8 1 4.3.5c1.1-.3.9-3-.2-2.6-1.5.4-3 .9-4.6 1.3-1.1.3-1 3 .1 2.6z" transform="translate(189.538 90.536)"/><path class="st11" d="M-2.3 2C-.7 1.6.8 1.1 2.4.7c1.1-.3.9-3-.2-2.6-1.5.4-3.1.8-4.6 1.2-1.1.4-1 3 .1 2.7z" transform="translate(179.495 107.763)"/><path class="st11" d="M-3.5 2.3c2.4-.6 4.8-1.3 7.2-2 1.1-.3.9-3-.2-2.6-2.4.6-4.8 1.3-7.2 2-1.1.3-.9 3 .2 2.6z" transform="translate(183.893 111.34)"/><path class="st10" d="M-2.3 2C-.7 1.6.8 1.1 2.4.7c1.1-.3.9-3-.2-2.6-1.5.4-3.1.8-4.6 1.2-1.1.4-1 3 .1 2.7z" transform="translate(183.888 92.02)"/><path class="st10" d="M-1.7 2C-.1 1.6 1.4 1.1 3 .7c1-.4.9-3-.2-2.7-1.6.5-3.1.9-4.7 1.3-1.1.4-.9 3 .2 2.7z" transform="translate(188.147 94.238)"/><path class="st11" d="M-3.5 2.3c2.4-.6 4.8-1.3 7.2-2 1.1-.3.9-3-.2-2.6-2.4.6-4.8 1.3-7.2 2-1.1.3-.9 3 .2 2.6z" transform="translate(180.93 96.604)"/><path class="st11" d="M-2.5 2.3C0 1.7 2.4 1 4.8.3c1.1-.3.9-3-.2-2.6-2.4.6-4.8 1.3-7.2 2-1.1.3-1 3 .1 2.6z" transform="translate(187.44 104.9)"/><path class="st11" d="M-3.5 2.3c2.4-.6 4.8-1.3 7.2-2 1.1-.3.9-3-.2-2.6-2.4.6-4.8 1.3-7.2 2-1.1.3-.9 3 .2 2.6z" transform="translate(179.972 78.931)"/><path class="st11" d="M-2.2.9C.2.3 2.6-.4 5-1.1c1.1-.3.9-3-.2-2.6-2.3.6-4.7 1.3-7.2 2-1.1.3-.9 3 .2 2.6z" transform="translate(190.276 74.917)"/><path class="st11" d="M-1.5 2.3C.9 1.7 3.3 1 5.7.3c1.1-.3.9-3-.2-2.6C3.1-1.7.7-1-1.7-.3c-1.1.3-.9 3 .2 2.6z" transform="translate(190.949 78.928)"/><path class="st10" d="M-3 2.2L3.2.4c1.4-.4 1.3-3-.2-2.6L-3.2-.4c-1.4.4-1.3 3 .2 2.6z" transform="translate(188.056 78.985)"/><path class="st10" d="M-3 2.2C-.9 1.6 1.1 1 3.2.4c1.4-.4 1.3-3-.2-2.6C1-1.6-1.1-1-3.2-.4c-1.4.4-1.3 3 .2 2.6z" transform="translate(181.615 82.509)"/><path class="st10" d="M-4.1 2.2C-2 1.6 0 1 2.1.4c1.4-.4 1.3-3-.2-2.6-2 .6-4.1 1.2-6.1 1.8-1.5.4-1.3 3 .1 2.6z" transform="translate(175.175 78.33)"/><path class="st11" d="M-2.3 1.3C-.7.8.9.4 2.4 0c1.1-.3.9-3-.2-2.6-1.5.4-3.1.8-4.6 1.2-1.1.4-1 3 .1 2.7z" transform="translate(182.212 75.262)"/><path class="st12" d="M-2 1.9C-.6 1.5.7 1.1 2.1.7c1.1-.3.9-3-.2-2.6-1.3.4-2.7.8-4 1.2-1.1.3-1 2.9.1 2.6z" transform="translate(183.276 76.491)"/><path class="st12" d="M-2 2C-.6 1.6.7 1.2 2.1.8c1.1-.3.9-3-.2-2.6-1.3.4-2.7.8-4 1.2-1.1.3-1 3 .1 2.6z" transform="translate(182.846 83.81)"/><path class="st10" d="M-3 2.5C-.9 1.9 1.1 1.3 3.2.7c1.4-.3 1.3-3-.2-2.6C1-1.3-1.1-.7-3.2-.1c-1.4.4-1.3 3 .2 2.6z" transform="translate(186.93 83.594)"/><path class="st11" d="M-3.5 3.4l7.2-2.1c1.1-.3.9-3-.2-2.6L-3.7.8c-1.1.3-.9 2.9.2 2.6z" transform="translate(181.17 84.313)"/><path class="st11" d="M-2.3 2.9C-.7 2.4.9 2 2.4 1.5c1.1-.3.9-3-.2-2.6C.7-.7-.9-.2-2.4.2c-1.1.3-1 3 .1 2.7z" transform="translate(189.98 84.472)"/><path class="st10" d="M-.3 2.4C1.8 1.8 3.8 1.2 5.9.6c1.4-.4 1.2-3-.2-2.6C3.6-1.4 1.6-.8-.5-.3c-1.4.5-1.3 3.1.2 2.7z" transform="translate(192.963 103.592)"/><path class="st10" d="M1 2.2C3.1 1.6 5.1 1 7.2.4c1.4-.4 1.3-3-.2-2.6C5-1.6 2.9-1 .8-.4-.6 0-.5 2.6 1 2.2z" transform="translate(193.13 94.65)"/><path class="st10" d="M-6.6 2C-4.5 1.4-2.5.8-.4.2 1-.2.8-2.8-.6-2.4c-2.1.6-4.1 1.2-6.2 1.8-1.4.4-1.3 3 .2 2.6z" transform="translate(192.959 89.874)"/><path class="st11" d="M-.7 2C.9 1.5 2.4 1.1 4 .7c1.1-.3.9-3-.2-2.6-1.5.4-3.1.8-4.6 1.2-1.1.4-1 3 .1 2.7z" transform="translate(192.96 91.536)"/><path class="st11" d="M.4 2C2 1.6 3.5 1.1 5.1.7c1.1-.4.9-3-.2-2.7-1.6.5-3.1.9-4.7 1.3-1.1.4-.9 3 .2 2.7z" transform="translate(192.962 101.207)"/><path class="st10" d="M-1.8 2c1.6-.4 3.1-.9 4.7-1.3 1.1-.4.9-3-.2-2.7-1.5.5-3.1.9-4.7 1.3-1 .4-.9 3 .2 2.7z" transform="translate(170.239 108.42)"/><path class="st10" d="M-2.3 1.8C-.7 1.4.9 1 2.4.5c1.1-.3.9-3-.2-2.6-1.5.4-3.1.9-4.6 1.3-1.1.3-1 3 .1 2.6z" transform="translate(169.268 105.738)"/><path class="st10" d="M-2.3 2.1C-.7 1.7.8 1.2 2.4.8c1.1-.3.9-3-.2-2.6C.7-1.4-.9-1-2.4-.6c-1.1.4-1 3 .1 2.7z" transform="translate(158.942 117.496)"/><path class="st10" d="M-2.3 2C-.7 1.6.8 1.1 2.4.7c1.1-.3.9-3-.2-2.6-1.5.4-3.1.8-4.6 1.2-1.1.4-1 3 .1 2.7z" transform="translate(168.342 113.579)"/><path class="st10" d="M-1.6 2C-.1 1.5 1.5 1.1 3 .7c1.1-.4 1-3-.1-2.7-1.6.5-3.1.9-4.7 1.3-1.1.4-.9 3 .2 2.7z" transform="translate(170.397 115.381)"/><path class="st10" d="M-2.6 2C-1 1.5.5 1.1 2.1.7c1.1-.4.9-3-.2-2.7-1.5.5-3.1.9-4.7 1.3-1.1.4-.9 3 .2 2.7z" transform="translate(141.839 115.25)"/><path class="st10" d="M-2.3 2.5C-.7 2 .9 1.6 2.4 1.1c1.1-.3.9-3-.2-2.6-1.5.4-3.1.9-4.6 1.3-1.1.3-1 3 .1 2.7z" transform="translate(167.6 117.861)"/><path class="st10" d="M-2.3 2C-.7 1.6.8 1.1 2.4.7c1.1-.3.9-3-.2-2.6-1.5.4-3.1.8-4.6 1.2-1.1.4-1 3 .1 2.7z" transform="translate(152.226 117.302)"/><path class="st10" d="M-2.3 2C-.7 1.6.8 1.1 2.4.7c1.1-.3.9-3-.2-2.6-1.5.4-3.1.8-4.6 1.2-1.1.4-1 3 .1 2.7z" transform="translate(150.663 113.686)"/><path class="st10" d="M-3 2.2C-.9 1.6 1.1 1 3.2.4c1.4-.4 1.3-3-.2-2.6C1-1.6-1.1-1-3.2-.4c-1.4.4-1.3 3 .2 2.6z" transform="translate(164.288 111.164)"/><path class="st11" d="M-2.3 2C-.7 1.6.8 1.1 2.4.7c1.1-.3.9-3-.2-2.6-1.5.4-3.1.8-4.6 1.2-1.1.4-1 3 .1 2.7z" transform="translate(150.014 116.994)"/><path class="st11" d="M-2.3 2.6c1.6-.4 3.1-.9 4.7-1.3 1.1-.3.9-3-.2-2.6C.7-.9-.9-.5-2.4-.1c-1.1.4-1 3 .1 2.7z" transform="translate(162.011 117.995)"/><path class="st11" d="M-2.3 2C-.7 1.6.8 1.1 2.4.7c1.1-.3.9-3-.2-2.6-1.5.4-3.1.8-4.6 1.2-1.1.4-1 3 .1 2.7z" transform="translate(156.833 112.462)"/><path class="st11" d="M-.9 2C.7 1.6 2.2 1.1 3.8.7c1.1-.3.9-3-.2-2.6C2.1-1.5.5-1.1-1-.7c-1.1.4-1 3 .1 2.7z" transform="translate(171.142 112.805)"/><path class="st11" d="M-2.3 2C-.7 1.6.8 1.1 2.4.7c1.1-.3.9-3-.2-2.6-1.5.4-3.1.8-4.6 1.2-1.1.4-1 3 .1 2.7z" transform="translate(162.94 113.976)"/><path class="st11" d="M-2.3 2C-.7 1.6.8 1.1 2.4.7c1.1-.3.9-3-.2-2.6-1.5.4-3.1.8-4.6 1.2-1.1.4-1 3 .1 2.7z" transform="translate(143.853 116.996)"/><path class="st11" d="M-2.3 2C-.7 1.6.8 1.1 2.4.7c1.1-.3.9-3-.2-2.6-1.5.4-3.1.8-4.6 1.2-1.1.4-1 3 .1 2.7z" transform="translate(168.544 108.09)"/><path class="st11" d="M-3.5 1.6L3.7-.5c1.1-.3.9-3-.2-2.6L-3.7-1c-1.1.3-.9 2.9.2 2.6z" transform="translate(138.284 104.878)"/><path class="st12" d="M-2 1.9C-.6 1.5.7 1.1 2.1.7c1.1-.3.9-3-.2-2.6-1.3.4-2.7.8-4 1.2-1.1.3-1 2.9.1 2.6z" transform="translate(135.171 106.782)"/><path class="st10" d="M-2.3 2C-.7 1.6.8 1.1 2.4.7c1.1-.3.9-3-.2-2.6-1.5.4-3.1.8-4.6 1.2-1.1.4-1 3 .1 2.7z" transform="translate(130.147 110.32)"/><path class="st10" d="M-2.4 2C-.8 1.6.7 1.1 2.3.7c1.1-.3.9-3-.2-2.6-1.6.4-3.1.8-4.7 1.2-1.1.4-.9 3 .2 2.7z" transform="translate(129.782 105.711)"/><path class="st10" d="M-2.1 2C-.5 1.5 1 1.1 2.6.7c1.1-.3.9-3-.2-2.6-1.5.4-3.1.8-4.6 1.2-1.1.4-1 3 .1 2.7z" transform="translate(151.188 111.127)"/><path class="st10" d="M-3 2.2C-1 1.6 1.1 1 3.2.4c1.4-.4 1.3-3-.2-2.6C1-1.6-1.1-1-3.2-.4c-1.4.4-1.3 3 .2 2.6z" transform="translate(139.705 108.076)"/><path class="st10" d="M-3 2.2C-.9 1.6 1.1 1 3.2.4c1.4-.4 1.3-3-.2-2.6C1-1.6-1.1-1-3.2-.4c-1.4.4-1.3 3 .2 2.6z" transform="translate(147.65 109.879)"/><path class="st10" d="M-3 2.4c2-.5 4.1-1.1 6.2-1.7C4.6.3 4.5-2.4 3-2 1-1.4-1.1-.8-3.2-.2c-1.4.4-1.3 3 .2 2.6z" transform="translate(139.748 112.11)"/><path class="st11" d="M-2.3 2C-.7 1.6.8 1.1 2.4.7c1.1-.3.9-3-.2-2.6-1.5.4-3.1.8-4.6 1.2-1.1.4-1 3 .1 2.7z" transform="translate(142.236 110.42)"/><path class="st11" d="M-2.3 2C-.7 1.6.8 1.1 2.4.7c1.1-.3.9-3-.2-2.6-1.5.4-3.1.8-4.6 1.3-1.1.3-1 2.9.1 2.6z" transform="translate(135.109 112.224)"/><path class="st10" d="M-2.3 2C-.7 1.6.8 1.1 2.4.7c1.1-.3.9-3-.2-2.6-1.5.4-3.1.8-4.6 1.2-1.1.4-1 3 .1 2.7z" transform="translate(134.937 111.74)"/><path class="st11" d="M-2.3 2C-.7 1.6.8 1.1 2.4.7c1.1-.3.9-3-.2-2.6-1.5.4-3.1.8-4.6 1.2-1.1.4-1 3 .1 2.7z" transform="translate(132.168 108.31)"/><path class="st11" d="M-2.3 2C-.7 1.6.8 1.1 2.4.7c1.1-.3.9-3-.2-2.6-1.5.4-3.1.8-4.6 1.2-1.1.4-1 3 .1 2.7z" transform="translate(148.514 106.296)"/><path class="st11" d="M-3.5 2.3c2.4-.6 4.8-1.3 7.2-2 1.1-.3.9-3-.2-2.6-2.4.6-4.8 1.3-7.2 2-1.1.3-.9 3 .2 2.6z" transform="translate(168.123 94.258)"/><path class="st11" d="M-3.5 2.3c2.4-.6 4.8-1.3 7.2-2 1.1-.3.9-3-.2-2.6-2.4.6-4.8 1.3-7.2 2-1.1.3-.9 3 .2 2.6z" transform="translate(177.606 93.21)"/><path class="st11" d="M-3.4 2.3C-1 1.7 1.5 1 3.9.3c1.1-.3.9-3-.2-2.6-2.4.6-4.8 1.3-7.2 2-1.1.3-1 3 .1 2.6z" transform="translate(181.385 84.319)"/><path class="st11" d="M-3.5 2.3c2.4-.6 4.8-1.3 7.2-2 1.1-.3.9-3-.2-2.6-2.4.6-4.8 1.3-7.2 2-1.1.3-.9 3 .2 2.6z" transform="translate(170.1 87.645)"/><path class="st11" d="M-3.5 2.3c2.4-.6 4.8-1.3 7.2-2 1.1-.3.9-3-.2-2.6-2.4.6-4.8 1.3-7.2 2-1.1.3-.9 3 .2 2.6z" transform="translate(162.708 91.47)"/><path class="st11" d="M-3.5 2.3c2.4-.6 4.8-1.3 7.2-2 1.1-.3.9-3-.2-2.6-2.4.6-4.8 1.3-7.2 2-1.1.3-.9 3 .2 2.6z" transform="translate(181.228 88.89)"/><path class="st11" d="M-2.3 1.8C-.7 1.4.9 1 2.4.5c1.1-.3.9-3-.2-2.6-1.5.4-3.1.9-4.6 1.3-1.1.3-1 3 .1 2.6z" transform="translate(170.318 81.822)"/><path class="st11" d="M-2.3 2C-.7 1.6.8 1.1 2.4.7c1.1-.3.9-3-.2-2.6-1.5.4-3.1.8-4.6 1.2-1.1.4-1 3 .1 2.7z" transform="translate(169.995 85.291)"/><path class="st11" d="M-2.3 2C-.7 1.6.8 1.1 2.4.7c1.1-.3.9-3-.2-2.6-1.5.4-3.1.8-4.6 1.2-1.1.4-1 3 .1 2.7z" transform="translate(165.167 83.878)"/><path class="st12" d="M-2 1.9C-.6 1.5.7 1.1 2.1.7c1.1-.3.9-3-.2-2.6-1.3.4-2.7.8-4 1.2-1.1.3-1 2.9.1 2.6z" transform="translate(172.195 83.16)"/><path class="st10" d="M-2.3 2C-.7 1.6.8 1.1 2.4.7c1.1-.3.9-3-.2-2.6-1.5.4-3.1.8-4.6 1.2-1.1.4-1 3 .1 2.7z" transform="translate(164.954 87.71)"/><path class="st10" d="M-3 2C-1.4 1.6.1 1.1 1.7.7c1.1-.3.9-3-.2-2.6-1.5.4-3.1.8-4.6 1.2-1.1.4-1 3 .1 2.7z" transform="translate(159.674 90.842)"/><path class="st10" d="M-2.3 2C-.7 1.6.8 1.1 2.4.7c1.1-.3.9-3-.2-2.6-1.5.4-3.1.8-4.6 1.2-1.1.4-1 3 .1 2.7z" transform="translate(175.267 89.53)"/><path class="st10" d="M-2.3 2.5c1.6-.4 3.1-.9 4.7-1.3 1.1-.3.9-3-.2-2.6C.7-1-.9-.6-2.4-.1c-1.1.3-1 2.9.1 2.6z" transform="translate(172.256 96.227)"/><path class="st10" d="M-2.3 2C-.7 1.6.8 1.1 2.4.7c1.1-.3.9-3-.2-2.6-1.5.4-3.1.8-4.6 1.2-1.1.4-1 3 .1 2.7z" transform="translate(173.296 85.09)"/><path class="st12" d="M-1.8 1.7C-.5 1.4.7 1 1.9.7c1-.3.9-2.7-.1-2.4-1.2.3-2.5.7-3.7 1-1 .3-.9 2.7.1 2.4z" transform="translate(166.395 87.952)"/><path class="st12" d="M-1.8 1.7L1.9.6c1-.3.9-2.7-.1-2.4L-1.9-.7c-1 .3-.9 2.7.1 2.4z" transform="translate(182.698 101.54)"/><path class="st12" d="M-1.8 1.7C-.5 1.4.7 1 1.9.7c1-.3.9-2.7-.1-2.4L-1.9-.6c-1 .2-.9 2.6.1 2.3z" transform="translate(187.088 103.87)"/><path class="st12" d="M-1.8 1.7C-.5 1.4.7 1 1.9.7c1-.3.9-2.7-.1-2.4L-1.9-.6c-1 .2-.9 2.6.1 2.3z" transform="translate(183.627 112.381)"/><path class="st12" d="M-1.8 1.7L1.9.6c1-.3.9-2.7-.1-2.4C.5-1.4-.7-1-1.9-.7c-1 .3-.9 2.7.1 2.4z" transform="translate(164.709 112.387)"/><path class="st12" d="M-1.8 1.7C-.5 1.4.7 1 1.9.7c1-.3.9-2.7-.1-2.4-1.2.3-2.5.7-3.7 1-1 .3-.9 2.7.1 2.4z" transform="translate(138.102 112.265)"/><path class="st12" d="M-1.8 1.7L1.9.6c1-.3.9-2.7-.1-2.4C.6-1.4-.7-1-1.9-.7c-1 .3-.9 2.7.1 2.4z" transform="translate(132.205 110.778)"/><path class="st3" d="M-3.2 1v.9L3.2.7C3.2-.8 1.8-1.9.4-1.7l-1.6.3c-1.2.3-2 1.3-2 2.4z" transform="translate(207.72 87.985)"/><path class="st4" d="M14.8-11.2l-29.6 5.4v17L6 7.4C5.4.1 9-7 14.8-11.2z" transform="translate(122.057 133.095)"/><path class="st4" d="M37.8 2.6c-.6-7.3 3.1-14.4 8.8-18.6L-46.7 1.2c6.2 2 10.8 7.5 11.4 14.8" transform="translate(200.416 117.62)"/><path class="st4" d="M8.4 8V-9L-8.4-5.9C-2.2-3.8 2.4 1.7 3 8.9" transform="translate(272.401 104.394)"/><path class="st3" d="M19.2 1.1V18L-19.2-1.1V-18L19.2 1.1z" transform="translate(88.069 126.324)"/><path class="st13" d="M-3.1.4L3.1-.8l-.4.5L-3.1.8V.4z" transform="translate(116.551 73.397)"/><path class="st13" d="M-3.4.4L3.4-.9l-.3.5L-3.3.8l-.1-.4z" transform="translate(116.863 72.517)"/><path class="st13" d="M-2.8.3l5.5-1-.3.5-5.2 1V.3z" transform="translate(116.24 74.276)"/><path class="st13" d="M3.1-.4L-3 .8l.3-.5L3.1-.8v.4z" transform="translate(155.905 65.92)"/><path class="st13" d="M3.4-.4L-3.4.9l.4-.5L3.4-.8v.4z" transform="translate(155.594 66.799)"/><path class="st13" d="M-2.4.2l5.2-1v.4l-5.5 1 .3-.4z" transform="translate(156.215 65.04)"/><path class="st13" d="M-5.6 2.6l2.9-4.4S.5-2.4.9-2.5c.4-.1.4.1.2.4-.2.3-.5.8-.7 1.1-.1.1-.3.4.3.3.7-.1 4.9-.9 4.9-.9C5.2-1 3.9.8 1.5 1.2c-1.9.4-7.1 1.4-7.1 1.4z" transform="translate(125.025 71.31)"/><path class="st13" d="M2.9-1.6L1.3.8l-4.2.8 1.6-2.4 4.2-.8z" transform="translate(133.274 70.218)"/><path class="st13" d="M2.9-1.6L1.3.8l-4.2.8 1.6-2.4 4.2-.8z" transform="translate(139.313 69.071)"/><path class="st13" d="M-4.3-.2s-.3.5-.5.7c-.4.8 0 1.5 1.7 1.2 2-.4 6.7-1.3 6.7-1.3L5.2-2-4.3-.2z" transform="translate(147.803 67.414)"/><path class="st13" d="M-4.8-.3l-1.5 2.2S1.2.5 1.6.4c.4-.1.4.1.2.4-.1.2-.5.8-.7 1.1-.1.1-.3.4.4.3.7-.1 3.2-.6 3.2-.6s.5-.8 1-1.4c.6-.9 0-2.4-2.1-2-1.9.3-8.4 1.5-8.4 1.5z" transform="translate(126.27 67.581)"/><path class="st13" d="M3.7 1.1l-10.2 2 2.8-4.2 4.2-.8L-1.1.5.8.1l1.6-2.4 4.2-.8-2.9 4.2z" transform="translate(138.834 65.816)"/><path class="st13" d="M3.6-2.5L.8 1.7l-4.4.8 2.8-4.2 4.4-.8z" transform="translate(147.511 64.167)"/><path class="st3" d="M.9-8V9l-1.8.3V-9.2L.9-8z" transform="translate(194.62 119.152)"/><path d="M-11.4 2.6v-1l22.9-4.2v1l-22.9 4.2z" transform="translate(231.812 88.876)"/><path d="M-5.4 1.5v-1l10.8-2v1l-10.8 2z" transform="translate(225.764 93.939)"/><path class="st12" d="M-2 1.9C-.6 1.5.7 1.1 2.1.7c1.1-.3.9-3-.2-2.6-1.3.4-2.7.8-4 1.2-1.1.3-1 2.9.1 2.6z" transform="translate(155.387 98.86)"/><path class="st10" d="M-2.3 2C-.7 1.6.8 1.1 2.4.7c1.1-.3.9-3-.2-2.6-1.5.4-3.1.8-4.6 1.2-1.1.4-1 3 .1 2.7z" transform="translate(146.815 99.54)"/><path class="st10" d="M-2.3 2C-.7 1.6.8 1.1 2.4.7c1.1-.3.9-3-.2-2.6-1.5.4-3.1.8-4.6 1.2-1.1.4-1 3 .1 2.7z" transform="translate(129.04 108.513)"/><path class="st10" d="M-2.3 2C-.7 1.6.8 1.1 2.4.7c1.1-.3.9-3-.2-2.6-1.5.4-3.1.8-4.6 1.2-1.1.4-1 3 .1 2.7z" transform="translate(164.344 86.456)"/></g></g></svg>