<svg xmlns="http://www.w3.org/2000/svg"  viewBox="0 0 50 50" width="50px" height="50px"><path fill="none" stroke="#030000" stroke-linecap="round" stroke-linejoin="round" stroke-miterlimit="10" stroke-width="2" d="M40.401,35l-4.69,8.457C35.526,43.792,35.173,44,34.791,44H12.852c-0.383,0-0.735-0.208-0.921-0.543l-9.666-17.44 c-0.353-0.638-0.353-1.413,0-2.05l9.666-17.424C12.117,6.208,12.47,6,12.852,6h21.939c0.383,0,0.735,0.208,0.921,0.543L40.401,15"/><line x1="14.972" x2="8.005" y1="15" y2="15" fill="none" stroke="#030000" stroke-linecap="round" stroke-linejoin="round" stroke-miterlimit="10" stroke-width="2"/><line x1="26.003" x2="21.894" y1="15" y2="15" fill="none" stroke="#030000" stroke-linecap="round" stroke-linejoin="round" stroke-miterlimit="10" stroke-width="2"/><path fill="none" stroke="#030000" stroke-linecap="round" stroke-linejoin="round" stroke-miterlimit="10" stroke-width="2" d="M33.085,35h12.862C46.528,35,47,34.503,47,33.889V16.111C47,15.497,46.528,15,45.946,15H33.045"/><line x1="22" x2="26" y1="35" y2="35" fill="none" stroke="#030000" stroke-linecap="round" stroke-linejoin="round" stroke-miterlimit="10" stroke-width="2"/><line x1="8.01" x2="14.798" y1="35" y2="35" fill="none" stroke="#030000" stroke-linecap="round" stroke-linejoin="round" stroke-miterlimit="10" stroke-width="2"/><polygon fill="none" stroke="#030000" stroke-linecap="round" stroke-linejoin="round" stroke-miterlimit="10" stroke-width="2" points="16.746,12.02 19.907,12.02 22.014,15.181 16.318,25.025 21.982,34.836 19.874,37.997 16.714,37.997 9.003,25.025"/><polygon fill="none" stroke="#030000" stroke-linecap="round" stroke-linejoin="round" stroke-miterlimit="10" stroke-width="2" points="31.271,12.02 28.11,12.02 26.003,15.181 31.699,25.025 26.036,34.836 28.143,37.997 31.303,37.997 39.014,25.025"/><path fill="#030000" d="M7.583,14.319l4.822-8.006h22.601l4.785,8.319l-6.746,0.074l-1.61-2.595l-3.791,0.35l-1.969,2.117 c0,0-3.844-0.147-3.781-0.11c0.063,0.037-2.587-2.945-2.532-2.945s-2.853,0.258-2.853,0.258L14.669,15L7.583,14.319z"/><polygon fill="#030000" points="7.794,35.319 15.122,35.319 16.353,38.218 19.528,38.383 21.894,35.319 26.181,35.319 28.224,38.383 31.123,38.383 33.085,35 40.023,35 35.181,43.92 12.852,43.92"/></svg>