<svg xmlns="http://www.w3.org/2000/svg" width="200" height="200"><path fill="#F73244" d="M104 1c2.687 1.268 2.687 1.268 5.43 2.887l3.121 1.822 3.324 1.979 3.484 2.042c2.388 1.4 4.772 2.804 7.155 4.212 4.212 2.49 8.44 4.95 12.67 7.409 2.945 1.714 5.887 3.433 8.828 5.153 4.164 2.434 8.334 4.857 12.508 7.273l3.255 1.889a3054.4 3054.4 0 0 0 6.122 3.541l2.818 1.637 2.441 1.412L178 44l2.206 1.14c6.276 3.555 6.276 3.555 7.639 6.987.327 2.582.372 5.036.32 7.639l.047 2.929c.04 3.186.014 6.368-.017 9.555.006 2.22.015 4.438.026 6.657.014 4.648-.006 9.293-.048 13.94-.05 5.954-.021 11.903.032 17.856.033 4.581.023 9.162 0 13.743-.007 2.195 0 4.39.022 6.583.023 3.07-.012 6.135-.062 9.205l.055 2.74c-.118 3.913-.276 6.131-3.195 8.897-2.285 1.541-4.577 2.865-7.025 4.129l-3.028 1.836-2.695 1.539-3.091 1.773-3.249 1.852-6.972 4-1.774 1.017c-4.77 2.735-9.522 5.498-14.267 8.274a2579.425 2579.425 0 0 1-5.842 3.405 1084.065 1084.065 0 0 0-14.35 8.468c-2.37 1.424-4.749 2.834-7.128 4.243a557.97 557.97 0 0 0-5.053 3.06l-3.121 1.842-2.743 1.65c-3.391 1.314-5.21 1.01-8.687.041-2.32-1.085-2.32-1.085-4.555-2.45l-2.573-1.548-2.747-1.69a8466.222 8466.222 0 0 0-5.938-3.578l-3.093-1.873c-4.96-2.984-9.964-5.89-14.969-8.798l-6.012-3.504c-4.167-2.428-8.337-4.851-12.508-7.274l-3.193-1.858c-1.985-1.154-3.97-2.307-5.956-3.458a234.863 234.863 0 0 1-5.37-3.218c-3.053-1.832-3.053-1.832-6.42-3.043-3.89-1.736-7.054-3.276-9.666-6.708-2.55-7.015-1.878-14.993-1.797-22.34-.014-2.209-.031-4.418-.052-6.627-.028-4.623-.008-9.244.044-13.867.063-5.912 0-11.815-.1-17.726a680.48 680.48 0 0 1-.024-13.68c.005-2.177-.013-4.356-.054-6.533-.26-16.525-.26-16.525 3.452-20.998 3.534-2.95 7.417-4.806 11.682-6.469 2.741-1.127 5.203-2.657 7.72-4.21 1.855-1.08 3.71-2.159 5.566-3.237l6.239-3.633L52 27c3.042-1.771 6.084-3.542 9.126-5.315 1.99-1.16 3.98-2.316 5.973-3.471a648.89 648.89 0 0 0 15.088-9.019l3.023-1.847a438.676 438.676 0 0 0 5.662-3.526l2.573-1.568L95.68.858C98.854-.316 100.754.128 104 1Z"/><path fill="#FEFCFC" d="M124 46c1.533 7.606 2.662 15.547 0 23-5.248 6.027-13.254 8.967-20.375 12.239-5.807 2.74-11.224 6.185-16.695 9.533a887.684 887.684 0 0 1-8.672 5.22l-2.933 1.761C73 99 73 99 71 99v2l2.094.77c4.467 1.89 8.563 4.426 12.75 6.867 3.584 1.548 4.51 1.414 8.156.363 2.444-1.164 2.444-1.164 4.895-2.668l2.862-1.689 3.055-1.83 6.434-3.801 3.351-1.991c5.583-3.316 11.178-6.61 16.778-9.896l3.132-1.856 2.891-1.699 2.553-1.507C142 81 142 81 144 81c.263 3.54.422 7.078.563 10.625l.228 3.027c.215 7.222.215 7.222-2.395 10.143-2.385 1.623-4.818 2.91-7.396 4.205a946.235 946.235 0 0 0-5.969 3.516 2477.595 2477.595 0 0 1-6.531 3.734c-9.462 5.388-9.462 5.388-18.8 10.984l-2.345 1.433a280.025 280.025 0 0 0-4.19 2.627c-2.55 1.557-4.54 2.689-7.563 2.772-4.04-1.655-7.693-3.861-11.415-6.129L70 123v22c-6-2-6-2-20-10V66c5.241 2.096 9.81 4.756 14.648 7.637C68.74 75.3 70.715 74.919 75 74c2.992-1.352 2.992-1.352 5.852-3.176l3.3-1.994 3.473-2.142a2574.63 2574.63 0 0 1 5.4-3.265c1.214-.733 2.427-1.468 3.64-2.204 5.768-3.498 11.6-6.877 17.46-10.219l2.69-1.544 2.443-1.394 2.13-1.214C123 46 123 46 124 46Z"/><path fill="#FE626A" d="M124 46h1l-.21 1.937c-.95 10.688-.95 10.688 1.21 21.063 2.83 2.662 5.997 4.025 9.563 5.5 3.54 1.467 6.669 2.807 9.437 5.5 2.446 7.313 1.165 15.515 0 23h-1V81c-3.273 1.83-6.544 3.662-9.813 5.5l-3.073 1.728a772.054 772.054 0 0 0-17.477 10.163l-1.84 1.102c-2.98 1.786-5.954 3.58-8.921 5.388l-3.29 1.978-2.905 1.765c-2.697 1.384-4.661 2.16-7.681 2.376-2.22-.804-2.22-.804-4.426-2.09l-2.412-1.377-2.475-1.47-2.533-1.46c-2.059-1.188-4.11-2.39-6.154-3.603v-2l1.99-1.139c3.15-1.805 6.3-3.614 9.448-5.424l1.745-1.002c6.717-3.864 13.407-7.765 20.04-11.77.574-.348 1.148-.694 1.74-1.051 2.767-1.673 5.53-3.353 8.289-5.04l2.998-1.82 2.64-1.615C122 69 122 69 124 69V46Z"/><path fill="#FE6169" d="M103 34c5.181 1.126 9.425 3.865 13.875 6.625l2.086 1.273c1.683 1.029 3.361 2.065 5.039 3.102-2.43 2.7-5.057 4.329-8.207 6.117l-3.186 1.822-3.42 1.936c-2.358 1.339-4.714 2.68-7.07 4.023l-1.804 1.029a385.557 385.557 0 0 0-11.68 6.987l-2.981 1.833a389.17 389.17 0 0 0-5.532 3.48c-3.782 2.317-6.218 3.74-10.706 3.902-4.296-1.42-7.978-3.377-11.852-5.692l-2.216-1.287A665.967 665.967 0 0 1 50 66c2.378-2.64 4.88-4.197 7.988-5.898l3.05-1.685 3.275-1.792c8.757-4.845 17.453-9.771 26.062-14.875l2.806-1.662C96.5 38.115 99.786 36.143 103 34Z"/><path fill="#FEB3B4" d="M144 81c.263 3.54.422 7.078.563 10.625l.228 3.027c.215 7.222.215 7.222-2.395 10.143-2.385 1.623-4.818 2.91-7.396 4.205a946.235 946.235 0 0 0-5.969 3.516 2755.316 2755.316 0 0 1-6.531 3.734c-2.302 1.318-4.605 2.637-6.906 3.957l-3.39 1.944a891.706 891.706 0 0 0-15.304 9.055C92.217 134 92.217 134 90 134v-23l9.813-5.5c10.616-5.976 21.111-12.143 31.575-18.38l3.319-1.98 2.952-1.764C141.701 81 141.701 81 144 81ZM124 46c1.534 7.61 2.646 15.538 0 23-5.193 6.021-13.198 8.936-20.275 12.191-6.14 2.9-11.896 6.511-17.707 10.01a1033.041 1033.041 0 0 1-9.42 5.572l-3.203 1.889C71 100 71 100 70 100l-1-24 7-3a152.404 152.404 0 0 0 4.941-2.68l2.738-1.548 2.883-1.647 3.011-1.71c9.918-5.654 19.744-11.462 29.545-17.314C122.71 46 122.71 46 124 46Z"/><path fill="#FE6870" d="M70 123c3.259 1.304 6 2.464 8.988 4.164l2.139 1.211 2.186 1.25 2.244 1.273c1.816 1.031 3.63 2.066 5.443 3.102-3.669 2.89-7.584 5.318-11.563 7.75l-2.037 1.285c-1.753 1.07-3.574 2.026-5.4 2.965l-3-1 1-22Z"/></svg>