<svg xmlns="http://www.w3.org/2000/svg" width="2757" height="1123"><path fill="#DA2500" d="M1151.37 223.567c2.482-.004 4.965-.013 7.448-.023 32.88-.104 64.86 1.969 96.57 11.272 2.596.76 5.196 1.503 7.798 2.245 1.655.48 3.311.96 4.966 1.443.776.22 1.552.442 2.351.67 1.851.548 3.678 1.18 5.497 1.826l1 2-12 5 4.652.262c9.819.633 19.447 1.272 28.91 4.113l1.994.596c4.546 1.482 8.436 3.466 12.444 6.029 1.187 2.437 1.187 2.437 1 5-1.938 2.812-1.938 2.812-4 5l1.738-.438c12.688-2.772 26.654-2.735 39.262.438v2c-11.846 5.473-23.705 10.621-36 15h10l2 4c-6.515 7.54-6.515 7.54-9.438 10.312-1.902 1.672-1.902 1.672-1.562 4.688l-6 2 3 2v3l-2 1 3.07.734 4.055 1.016 2.016.477c4.597 1.171 8.047 2.829 11.859 5.773 1.062 2.062 1.062 2.062 1 4-1.995 2.73-3.856 3.428-7 5h26v3a95.035 95.035 0 0 1-5 4l-1.875 2c-5.44 5.12-12.055 7.161-19.063 9.25l-2.65.812A960.489 960.489 0 0 1 1317 351l2.453 1.36c2.547 1.64 2.547 1.64 3.297 3.89-1.997 7.321-10.703 12.11-16.75 16l-2.6 1.68c-13.836 8.714-28.956 15.705-44.4 21.07l3.324-.438 4.363-.562 2.186-.29c3.737-.477 7.35-.83 11.127-.71-3.827 4.13-7.867 7.078-12.625 10.062l-2.247 1.43c-1.574 1-3.15 1.999-4.728 2.993-2.351 1.484-4.695 2.979-7.037 4.476-26.263 16.752-53.015 31.292-81.399 44.149-1.986.9-3.972 1.803-5.958 2.705-18.802 8.535-37.76 16.676-56.819 24.622l-2.995 1.251c-14.32 5.971-28.723 11.71-43.192 17.312a1375.76 1375.76 0 0 0 41.001 5.42c3.24.38 6.479.762 9.718 1.145 4.65.55 9.3 1.1 13.951 1.647 35.47 4.183 70.936 8.4 106.376 12.834 3.42.427 6.84.851 10.262 1.271 3.96.487 7.918.982 11.875 1.484 1.43.18 2.862.357 4.293.531 1.926.235 3.85.482 5.775.73l3.243.405C1272 528 1272 528 1274 530l-3.003-.275c-27.098-3.999-27.098-3.999-53.9-2.223-2.364.562-4.5.641-6.929.674-13.683.306-26.683 1.753-40.097 4.473C1168 533 1168 533 1165 533v2l-3.339.06c-8.84.165-17.678.361-26.516.608l-2.59.068c-22.112.64-43.877 4.392-65.694 7.816-2.888.452-5.777.9-8.667 1.347-27.62 4.286-55.036 9.283-82.417 14.902-3.592.735-7.184 1.468-10.777 2.199l-2.409.493c-2.173.442-4.348.873-6.525 1.3l-3.591.716c-3.902.551-7.539.574-11.475.491v2c-7.392 1.372-14.681 2.303-22.188 2.754-2.415.211-4.53.438-6.812 1.246l-1 2c-2.02.432-2.02.432-4.738.727-19.617 2.586-35.746 9.566-53.466 18.001-4.836 2.3-9.699 4.536-14.57 6.76-19.075 8.724-38.064 17.63-57.03 26.59a3470.796 3470.796 0 0 1-14.29 6.703c-34.726 16.217-69.052 33.248-103.337 50.373l-6.5 3.245C641.629 693.107 626.217 700.853 611 709l-3.555 1.896c-3.213 1.717-6.423 3.44-9.633 5.166a3447.348 3447.348 0 0 1-23.054 12.293c-13.768 7.268-27.49 14.545-40.84 22.564-2.591 1.46-5.252 2.766-7.918 4.081 7.298-1.816 14.596-3.634 21.88-5.508C609.149 733.73 671.097 720 733.35 708.752a3760.016 3760.016 0 0 0 19.096-3.507c84.822-15.78 170.09-29.256 302.117-47.382 5.36-.717 10.718-1.444 16.076-2.172 34.69-4.71 69.438-8.824 104.229-12.703l6.466-.723c90.07-10.078 180.294-18.377 270.665-25.265 2.19 3.285 2.622 5.402 3.329 9.26l.727 3.913.764 4.233.799 4.338c.557 3.029 1.11 6.058 1.659 9.089.704 3.885 1.416 7.768 2.132 11.651.55 2.985 1.096 5.97 1.642 8.956a2883.88 2883.88 0 0 1 1.878 10.3l.628 3.452C1466 685 1466 685 1466 688c-6.398 1.338-12.785 2.473-19.26 3.37l-5.476.78-2.92.412c-19.706 2.798-39.37 5.826-59.02 9l-5.973.964c-11.529 1.86-23.057 3.728-34.583 5.602-8.108 1.318-16.217 2.631-24.328 3.937l-5.896.95c-17.607 2.835-35.22 5.444-52.953 7.359-6.938.779-13.085 1.841-19.484 4.721-3.073 1.32-6.131 1.827-9.427 2.327l-2.053.32c-2.249.348-4.5.678-6.752 1.008l-4.867.743c-10.468 1.59-20.951 3.075-31.434 4.566l-3.756.534c-6.17.877-12.34 1.746-18.512 2.603-11.514 1.61-22.952 3.278-34.306 5.804v2c-98.625 19.764-98.625 19.764-135.438 27l-3.612.71a19518.953 19518.953 0 0 1-12.824 2.518c-1.882.368-3.765.734-5.648 1.098-1.904.369-3.807.739-5.71 1.114a713.895 713.895 0 0 1-36.669 6.268c-2.763.399-5.525.805-8.286 1.214a5575.198 5575.198 0 0 1-23.5 3.442c-4.837.696-9.672 1.409-14.505 2.134-1.832.271-3.664.536-5.497.794-2.54.358-5.078.738-7.614 1.124l-2.287.306c-2.315.324-2.315.324-5.41 1.278-1.275 1.952-1.275 1.952-2 4-1.781.835-1.781.835-3.977 1.31l-2.529.568-2.787.563-2.94.63c-14.205 2.963-28.559 5.173-42.882 7.479-28.941 4.188-28.941 4.188-56.885 12.45l-1 2h2v3l-1.959.486c-72.578 18.027-145.051 36.398-352.104 97.576l-2.012.637c-14.196 4.495-28.364 9.055-42.44 13.914l-3.205 1.105c-4.838 1.672-9.669 3.36-14.49 5.083-12.614 4.453-25.333 7.612-38.398 10.454-4.546.998-9.079 2.048-13.613 3.096-4.6 1.057-9.205 2.09-13.81 3.119-2.314.52-4.627 1.048-6.937 1.582-44.977 10.38-44.977 10.38-66.032 5.948 2.686-3.378 6.285-4.474 10.21-5.89l2.173-.806c2.328-.86 4.66-1.707 6.992-2.554l4.777-1.755c11.54-4.226 23.14-8.255 34.848-11.995l-2.992.254-3.883.308-3.867.317C235 947 235 947 233 946c.125-2.234.125-2.234 1-5 2-1.671 3.784-2.935 6-4.25l1.873-1.153C253.11 928.783 264.72 922.708 277 918l-4-1c1.37-3.161 1.99-3.993 5-6l-2.012.473-2.676.59-2.636.597c-2.836.36-4.924.05-7.676-.66 2.614-1.742 4.729-2.768 7.629-3.876.94-.36 1.879-.722 2.847-1.094l3.086-1.17 3.214-1.227c2.256-.86 4.512-1.716 6.769-2.572 3.389-1.286 6.773-2.581 10.158-3.877 12.65-4.82 25.327-9.305 38.297-13.184a111.026 111.026 0 0 0-19.445 5.223l-5.262 1.88c-2.717.981-5.433 1.965-8.149 2.95-2.652.96-5.308 1.908-7.964 2.857l-2.431.893C286.197 900.783 280.94 902 275 902a79.955 79.955 0 0 0-4.285 2.508l-2.748 1.708-3.03 1.909-3.163 1.985c-13.463 8.508-26.67 17.406-39.889 26.284a3394.707 3394.707 0 0 1-11.428 7.63 3212.429 3212.429 0 0 0-22.707 15.288l-2.036 1.381c-3.989 2.705-7.976 5.412-11.964 8.12l-4.727 3.204c-15.572 10.553-30.777 21.569-45.907 32.743a2086.096 2086.096 0 0 1-29.179 21.135l-1.924 1.37c-1.17.831-2.34 1.661-3.512 2.49A179.527 179.527 0 0 0 79 1037l-2-1c6.999-5.966 14.262-11.423 21.736-16.77 8.465-6.064 16.779-12.325 25.093-18.594 2.803-2.113 5.612-4.219 8.421-6.324 3.123-2.34 6.245-4.684 9.363-7.03 6.5-4.888 13.014-9.75 19.573-14.556 11.515-8.443 22.876-16.92 33.423-26.566 11.596-10.477 24.426-19.607 37.22-28.55l2.319-1.622c1.44-1.003 2.885-2.001 4.333-2.993 3.902-2.707 7.231-5.537 10.519-8.995 5.596-5.273 11.54-10.053 17.604-14.767C272.52 884.626 278.27 879.837 284 875l-1.772-.06c-2.66-.096-5.319-.205-7.978-.315l-2.79-.094-2.694-.117-2.476-.095c-2.458-.342-4.148-1.093-6.29-2.319.726-4.003 2.465-5.815 5.632-8.38 4.998-3.419 10.522-5.874 15.993-8.433 1.31-.62 2.62-1.24 3.93-1.862 16.713-7.893 33.53-14.932 51.031-20.877 5.663-1.952 10.673-3.742 15.414-7.448h-14c3.784-2.838 7.255-4.45 11.598-6.117a3775979789.761 3775979789.761 0 0 0 7.004-2.776c13.86-5.532 26.504-11.27 38.34-20.514 2.89-2.236 5.865-4.344 8.84-6.464a861.479 861.479 0 0 0 6.745-4.875c3.006-2.19 6.019-4.37 9.04-6.54 6.469-4.649 12.924-9.306 19.265-14.13 9.617-7.314 19.579-14.083 29.592-20.841 3.601-2.437 7.184-4.9 10.763-7.368A8313.728 8313.728 0 0 1 506 717l2.59-1.769c28.786-19.64 57.664-39.153 86.697-58.427 2.57-1.709 5.137-3.423 7.703-5.137 9.35-6.243 18.735-12.434 28.124-18.62l8.636-5.69c9.047-5.964 18.1-11.919 27.168-17.85l2.281-1.492a6478.27 6478.27 0 0 1 10.48-6.844l3.673-2.401 3.182-2.075c2.502-1.61 2.502-1.61 4.466-3.695l-3-1.652c-15.228-8.61-15.228-8.61-20-16.348l-1-5h16l-4-4c-.125-3-.125-3 1-6 3.697-3.095 7.389-4.683 12-6l-.625-1.813C691 550 691 550 693 547l-4-2 1-2c1.766-.41 1.766-.41 4.035-.633l2.451-.254 2.576-.238 2.588-.262c2.116-.212 4.233-.414 6.35-.613l-14-1-1-3h13l-2-4v-3.875c-.52-6.494-4.93-11.19-8.75-16.184-3.036-3.968-3.751-5.928-3.25-10.941 2.996-4.43 7.98-6.599 13-8 5.304-.724 10.655-.869 16-1l-1.531-1.023-1.969-1.352-1.969-1.336L714 488v-2a1142.48 1142.48 0 0 1 9.625-3.813l2.68-1.08c13.112-5.104 25.81-6.657 39.757-6.545l2.408.009c18.343.093 36.36 2.071 54.53 4.429a16969.999 16969.999 0 0 0 10.75 1.379l2.701.346c4.318.556 8.634 1.118 12.949 1.7l2.4.318c1.468.195 2.937.394 4.405.597 7.445.981 12.465 1.379 19.041-2.559l1.72-1.01c1.208-.71 2.411-1.428 3.61-2.15 3.143-1.893 6.318-3.73 9.486-5.578l1.87-1.096C907.902 461.598 925.08 454.432 942 447l1.958-.862c1.937-.85 3.876-1.694 5.815-2.536l3.475-1.514C956 441 956 441 958 441l.187-2.289c1.38-4.6 5.095-5.691 9.127-7.895 6.64-3.357 13.581-6.032 20.498-8.754 11.14-4.387 21.74-9.2 32.188-15.062v-6c5.423-2.834 10.847-5.665 16.273-8.492 4.196-2.187 8.39-4.38 12.579-6.578 22.881-11.973 46.032-23.418 69.148-34.93l-9-1 1-6c-9.563-1.334-17.961-.632-27.428.873-14.917 2.345-14.917 2.345-21.572.127-.688-2.063-.688-2.063-1-4l-3.89.586-5.36.789-2.527.383c-1.91.279-3.824.54-5.738.789-1.805.234-3.61.472-5.41.75-16.756 2.558-33.344 1.192-50.157.044-3.084-.207-6.17-.399-9.254-.59-3.709-.231-7.417-.469-11.125-.708l-2.108-.135c-1.972-.129-3.945-.262-5.917-.396l-3.383-.226c-3.082-.282-6.087-.737-9.131-1.286v-3l-1.809.013c-6.196.045-12.392.075-18.589.097-2.314.01-4.629.024-6.943.04-3.321.025-6.642.036-9.964.045l-3.15.032h-2.912l-2.57.014C898 338 898 338 896 336c-2.49-.067-4.909-.02-7.395.074-9.392.166-18.652-.554-27.992-1.43l-2.278-.212c-3.994-.374-7.987-.754-11.98-1.138-8.727-.837-17.459-1.629-26.19-2.419l-2.7-.245a2598.136 2598.136 0 0 0-56.456-4.469c-29.29-2.027-58.609-3.489-87.938-4.818-15.7-.717-31.34-1.555-46.982-3.138-28.418-2.786-56.817.514-85.048 3.88-14.432 1.673-14.432 1.673-20.041.915-2.215-1.875-2.215-1.875-4-4a64.82 64.82 0 0 0-7.563-2l-2.227-.49c-4.116-.897-8.247-1.72-12.378-2.545l-2.57-.522c-1.64-.33-3.283-.65-4.928-.96-4.27-.85-7.868-1.682-11.334-4.483-.813-2.188-.813-2.188-1-4l-1.871.402-2.567.535-2.496.528c-7.356 1.284-14.731 1.808-22.191 1.972l-2.59.14c-4.739.083-7.47-.259-11.078-3.464l-1.674-1.65c-9.109-8.692-27.97-7.88-39.533-7.9l-2.08-.008c-13.65 0-26.561 1.963-39.921 4.812a404.81 404.81 0 0 1-8.999 1.79l-2.582.486c-3.515.52-6.872.49-10.418.357 1-3 1-3 3.723-4.387l3.34-1.3 3.347-1.325L340 294v-2c18.63-3.896 37.336-7.172 56.125-10.188l4.42-.711c76.712-12.331 153.747-21.446 230.995-29.67l10.247-1.094a8880.52 8880.52 0 0 1 16.325-1.728c1.994-.21 3.987-.421 5.98-.634 23.835-2.543 47.72-4.052 71.659-5.2a8787.658 8787.658 0 0 0 21.275-1.055c14.629-.737 29.25-1.583 43.872-2.447l15.775-.925 2.03-.12c62.322-3.646 124.666-6.84 187.026-9.771a11707.6 11707.6 0 0 0 22.143-1.067c41.158-2.013 82.283-3.764 123.497-3.823ZM703 549l3 2 3-1c-1.066-1.296-1.066-1.296-3.563-1.063L703 549ZM309.547 878.781l-2.8 1.793c-.99.635-1.978 1.271-2.997 1.926-8.202 5.249-16.428 10.444-24.75 15.5 3.423 1.141 4.164.858 7.471-.263l2.73-.91 2.936-1.01 3.014-1.014c3.181-1.072 6.359-2.156 9.536-3.24 2.155-.729 4.309-1.456 6.463-2.182 5.287-1.784 10.57-3.579 15.85-5.381v-1l-2.117-.262c-2.723-.42-5.265-.875-7.883-1.738-1.625-2.625-1.625-2.625-2-5-1.991 0-3.848 1.75-5.453 2.781Zm23.812 14.653-3.242.966-3.367 1.037-3.414 1.026c-2.782.837-5.56 1.683-8.336 2.537 3.646 1.305 5.987.674 9.64-.434l3.243-.966 3.367-1.038 3.414-1.025c2.782-.837 5.56-1.683 8.336-2.537-3.646-1.305-5.987-.674-9.64.434ZM311 900l4 1Z"/><path fill="#9F0000" d="M2061 333c1.096.91 2.192 1.821 3.29 2.73 11.483 9.593 22.314 19.821 31.589 31.598a147.613 147.613 0 0 0 4.398 5.281c38.82 44.546 63.985 109.007 63.856 168.176l.003 2.977c0 2.054-.001 4.109-.006 6.164-.005 3.16 0 6.319.007 9.478 0 2.002-.002 4.004-.004 6.006l.006 2.872-.01 2.632-.002 2.325C2164 575 2164 575 2163 576a73.018 73.018 0 0 1-4.612.114h-2.972l-3.232-.016-3.292-.005c-3.485-.005-6.97-.018-10.454-.03-2.357-.006-4.713-.01-7.069-.014-5.79-.011-11.58-.028-17.369-.049l-.164-2.198c-1.238-15.77-3.203-31.22-6.273-46.74l-.44-2.285a548.7 548.7 0 0 0-1.307-6.492l-.767-3.754c-1.197-4.03-2.892-6.93-5.049-10.531-.922-2.266-.922-2.266-1.535-4.25l-.747-2.31-.78-2.44c-2.715-8.116-5.996-15.843-9.688-23.563l-1.43-3.01c-2.718-5.706-2.718-5.706-6.82-10.427-3.276-3.077-5.694-6.324-8.188-10.063-13.173-19.367-29.712-36.348-48.437-50.375-3.019-2.267-5.944-4.636-8.866-7.026-5.714-4.66-11.525-9.092-17.634-13.224l-1.865-1.279c-3.332-2.205-6.044-3.545-10.01-4.033-4.195-.638-7.635-2.058-11.48-3.836l-3.78-1.726a3569.41 3569.41 0 0 1-5.87-2.712c-10.09-4.66-19.703-8.692-30.87-9.726l-1 4-3.836-.656c-56.594-8.923-114.097 4.137-160.844 37.449-6.867 5.024-13.32 10.488-19.55 16.281-5.262 4.867-10.892 8.858-16.825 12.85-3.893 2.63-7.628 5.335-11.257 8.326-7.242 5.93-15.605 12.035-24.688 14.75l-2-1c3.862-6.776 8.12-12.926 13-19a561.453 561.453 0 0 0 3-4l-7 1c.174-9.064 5.1-15.651 10-23-.312-2.646-.312-2.646-1-5l-3 2c-2.188-.375-2.188-.375-4-1 7.162-7.852 14.408-15.559 22-23-3.726 3.118-7.27 6.234-10.625 9.75-2.589 2.647-4.725 4.254-8.375 5.25 1.336-3.004 2.771-4.98 5.188-7.2l1.867-1.724 1.945-1.764 1.945-1.798c4.76-4.366 4.76-4.366 7.055-5.514l-2.375-1.375C1719 368 1719 368 1717 366c-7.02.497-14.053 3.643-20.602 6.053-4.156 1.457-7.049 2.452-11.398.947 0-11.81 12.432-22.467 20.294-30.365 8.232-7.892 17.91-13.896 27.706-19.635l-2.957 1.129-3.855 1.433-1.948.749c-4.9 1.802-4.9 1.802-8.24.689 13.033-12.406 27.737-22.547 43-32l1.787-1.125C1845.415 240.961 1964.647 263.94 2061 333Zm-333 37-1 2 3-1-2-1Z"/><path fill="#BE0000" d="M1469 230v17l5-4c3.505.973 4.889 1.86 7.188 4.75 1.704 3.056 2.853 5.894 3.812 9.25h5v2h2l.313-1.938L1493 255l3-1 2 21 1-16h3v14l3-2c1.458-.02 2.918.007 4.375.063 6.927-.48 11.07-5.101 15.938-9.594 3.515-3.23 5.79-4.056 10.652-4.012 2.732.729 3.405 1.81 4.91 4.168 3.54 6.461 4.473 12.509 4.75 19.75l.117 2.52c.094 2.034.177 4.07.258 6.105l6-9c2.97 4.456 4.31 9.379 6 14.438l1.078 3.123c4.511 13.457 5.33 26.19 5.297 40.252l-.002 2.714c-.051 18.785-1.805 37.184-4.053 55.814a3837.196 3837.196 0 0 0-3.007 25.909l-.37 3.253c-6.846 60.746-11.743 121.75-16.492 182.69a8039.5 8039.5 0 0 1-.326 4.157c-.545 6.945-1.08 13.89-1.545 20.841-2.145 32.006-5.832 63.855-9.399 95.726-.632 5.647-1.261 11.295-1.89 16.942a45226.755 45226.755 0 0 1-6.595 58.956c-.51 4.534-1.02 9.068-1.528 13.603-1.407 12.54-2.826 25.079-4.268 37.615-.274 2.397-.546 4.794-.816 7.191-.41 3.63-.83 7.258-1.255 10.885-.219 1.875-.429 3.75-.639 5.627l-.39 3.27-.325 2.806C1511 889 1511 889 1509 891l.275-3.14c4.216-29.566 4.216-29.566 2.223-58.76-.607-2.56-.643-4.922-.674-7.553-.235-24.542-.235-24.542-5.867-48.274-1.238-4.235-1.273-8.138-1.3-12.527l-.045-2.715c-.046-2.865-.08-5.729-.112-8.593-.298-26.414-3.546-52.114-7.258-78.23l-1.11-7.827c-5.055-35.69-10.648-71.252-17.875-106.575a255.052 255.052 0 0 1-3.734-24.48c-.474-3.014-1.156-4.686-2.523-7.326-.395-2.594-.395-2.594-.598-5.5l-.24-3.188-.225-3.312c-.154-2.167-.312-4.334-.472-6.5l-.2-2.906c-.237-2.32-.501-4.391-1.265-6.594l-2-1c-.506-1.696-.506-1.696-.87-3.93l-.424-2.533-.433-2.767-.462-2.855c-.322-2.006-.64-4.013-.953-6.02-.474-3.027-.97-6.05-1.467-9.073-1.668-10.372-2.94-20.296-2.391-30.822l.107-2.566c.102-2.106.238-4.206.393-6.309l.145-2.121c.114-1.668.234-3.336.355-5.004l-3-1v-32l-5 1c-2.266-12.3-3.074-24.73-4-37.188l-.262-3.472a1471.115 1471.115 0 0 1-2.988-52.902l-.124-3.188c-.215-5.657-.4-11.313-.552-16.971-.065-1.986-.168-3.97-.28-5.953-.306-7.388 1.415-12.592 4.768-19.139l1.268-2.693c3.554-7.22 8.342-13.104 15.17-17.494 3-1 3-1 4-1Zm21 35 1 4Zm-1 4-1 8c2.35-1.898 2.35-1.898 2.125-5.125L1490 269h-1Z"/><path fill="#C10000" d="m1941.997 598.986 3.35-.002c21.445.005 42.887.366 64.328.72a362471.56 362471.56 0 0 0 8.8.145c6.656.108 13.312.206 19.968.297 74.303 1.026 148.48 3.402 222.704 7.022 2.942.143 5.885.285 8.828.426 52.84 2.54 105.588 5.811 158.332 9.89 7.456.576 14.912 1.136 22.369 1.694 11.016.826 22.031 1.67 33.045 2.528 4.257.33 8.514.657 12.77.98 5.393.408 10.785.824 16.177 1.246 1.98.153 3.96.304 5.94.453 11.919.895 23.632 2.272 35.415 4.286 4.705.782 9.437 1.39 14.165 2.017l2.92.392c2.297.309 4.594.615 6.892.92l-1 2c-17.737-.965-35.458-2.056-53.168-3.437l-2.444-.19-9.933-.778c-41.888-3.278-83.588-5.726-125.617-5.84-1.986-.005-3.972-.013-5.957-.022-25.565-.583-25.565-.583-50.584 3.872-7.196 2.209-14.6 1.795-22.047 1.708-1.657-.01-3.314-.018-4.97-.026-24.103-.184-48.2-1.286-72.28-2.287v2c-7.54 1.551-14.894 2.396-22.578 2.746l-6.665.344-3.472.172c-20.834 1.035-41.555 2.398-62.285 4.738l-5.297.586L2126 638v2l-2.329.01c-18.934.082-37.868.175-56.802.278-9.157.05-18.315.095-27.472.134-57.23.131-57.23.131-114.397 2.578l-2.224.142c-9.647.614-19.286 1.317-28.924 2.074-2.836.221-5.673.437-8.51.654a8099.341 8099.341 0 0 0-58.039 4.626c-9.725.81-19.451 1.601-29.183 2.324-35.401 2.644-70.725 5.988-106.056 9.42-5.607.545-11.214 1.084-16.822 1.621-45.998 4.349-45.998 4.349-91.886 9.72l-2.29.296c-1.959.255-3.917.515-5.875.776-2.767.3-5.412.418-8.191.347-.148-7.853.284-15.532 1.059-23.344l.329-3.429c.228-2.37.46-4.74.693-7.109.358-3.635.707-7.27 1.054-10.907.224-2.31.448-4.62.674-6.93l.315-3.295.303-3.047.263-2.678C1572 612 1572 612 1573 609c13.575-.806 27.152-1.593 40.73-2.36 5.955-.337 11.91-.676 17.864-1.028 88.471-5.21 177.07-6.066 310.403-6.626Z"/><path fill="#CE0000" d="M2099 660h44c-9.332 27.997-25.916 53.63-45 76l-2.836 3.395c-8.714 10.379-17.807 19.99-28.453 28.445a172.87 172.87 0 0 0-5.11 4.226c-13.794 11.815-29.57 21.47-45.601 29.934l-1.865 1.005c-21.452 11.51-44.577 19.343-68.385 24.245l-2.214.458c-14.897 2.877-29.71 3.701-44.849 3.667l-2.77-.002c-60.116-.163-122.73-23.754-166.253-65.85-2.595-2.53-2.595-2.53-5.312-4.632-2.144-1.724-3.836-3.42-5.602-5.516-1.876-2.206-3.754-4.379-5.742-6.484-17.602-18.698-30.277-41.42-40.189-64.957a155.035 155.035 0 0 0-2.124-4.746c-.807-2.54-.425-3.684.305-6.188l.652 1.594c17.873 43.434 43.516 81.354 85.494 104.364a202.128 202.128 0 0 1 5.842 3.44c16.985 10.305 33.704 17.8 53.012 22.602l2.86.72c57.813 14.443 122.295 10.376 174.14-20.72 27.355-16.766 53.004-38.036 72-64l2.54-3.383c13.16-17.74 22.78-37.366 31.46-57.617Z"/><path fill="#FF0" d="M136 993c-1.512 4.167-4.47 6.05-8 8.438a3855.96 3855.96 0 0 0-3.828 2.664l-2.057 1.422c-3.655 2.55-7.257 5.172-10.865 7.788-1.52 1.1-3.039 2.199-4.559 3.297a4548.926 4548.926 0 0 1-9.664 6.969l-2.456 1.768a4248.49 4248.49 0 0 1-4.646 3.34c-3.722 2.682-7.375 5.406-10.925 8.314l-2-1c6.996-5.963 14.256-11.42 21.728-16.763 7.67-5.494 15.213-11.15 22.749-16.827l2.286-1.718a509.485 509.485 0 0 0 4.529-3.466l2.169-1.667 1.923-1.495C134 993 134 993 136 993Z"/><path fill="#D10000" d="m1275 529 3 1Z"/></svg>